<svg xmlns="http://www.w3.org/2000/svg" viewBox="0 0 220.58 66.58"><defs><style>.cls-1{fill:#0081bd;}.cls-1,.cls-2{fill-rule:evenodd;}.cls-2{fill:#68bc45;}</style></defs><title>logo</title><g id="Слой_2" data-name="Слой 2"><g id="Layer_1" data-name="Layer 1"><path class="cls-1" d="M6.67,23.05,11,25.58V38.76a6.26,6.26,0,0,0,2.63,5h0c1.45.82,2.63-.1,2.63-2v-13L21.86,32c3.67,2.17,6.67,8,6.67,13.06v15.5c0,5-3,7.34-6.67,5.18l-15.19-9C3,54.62,0,48.74,0,43.73V28.23C0,23.21,3,20.88,6.67,23.05Z"/><path class="cls-1" d="M55.76,23.05,40.57,32c-3.67,2.17-6.67,8-6.67,13.06v15.5c0,5,3,7.34,6.67,5.18l15.19-9c3.67-2.17,6.67-8,6.67-13.06V28.23C62.43,23.21,59.43,20.88,55.76,23.05Z"/><path class="cls-2" d="M53,10.46,48.19,7.6,19.52,24.35l5.09,3c3.66,2.17,10.12,1.89,14.34-.62L52,19c4.21-2.51,4.67-6.35,1-8.52ZM43,4.49,14.27,21.24,9.43,18.37c-3.66-2.17-3.21-6,1-8.52l13-7.77C27.71-.43,34.16-.71,37.83,1.46Z"/><polygon class="cls-2" points="206.9 33 201.2 41.4 193.27 41.4 203.02 28.35 193.88 15.93 201.56 15.93 206.9 23.71 212.24 15.93 219.92 15.93 210.83 28.34 220.57 41.4 212.65 41.4 206.9 33"/><path class="cls-2" d="M171.47,14.59a.78.78,0,0,0-.23.39,3.68,3.68,0,0,0-.06.66v5.75h18.89v6.12H171.18v6.8a1,1,0,0,0,.2.71l0,0,0,0a.81.81,0,0,0,.41.15,9.08,9.08,0,0,0,1.17.06h17.7V41.4H169.34a15.51,15.51,0,0,1-2-.12,3.53,3.53,0,0,1-2.06-1.07A3.83,3.83,0,0,1,164,38a11.76,11.76,0,0,1-.19-2V13.42a6.58,6.58,0,0,1,.33-2.06,5.2,5.2,0,0,1,.92-1.7h0a3.78,3.78,0,0,1,2.23-1.26,12.21,12.21,0,0,1,2.09-.19h21.11v6.12H172.66a4.62,4.62,0,0,0-.74.06A.85.85,0,0,0,171.47,14.59Z"/><path class="cls-1" d="M142,35.05a2.2,2.2,0,0,0,.31.15,2.56,2.56,0,0,0,.78.08h18.15V41.4h-22a7.8,7.8,0,0,1-1.74-.2,3.81,3.81,0,0,1-1.66-.79A5,5,0,0,1,135,39.3a3.88,3.88,0,0,1-.48-2V8.19h7.34v26c0,.21,0,.41,0,.62A.36.36,0,0,0,142,35.05Z"/><path class="cls-1" d="M132,36.41a10.65,10.65,0,0,1-.19,1.78,3.61,3.61,0,0,1-1.33,2.16,4.3,4.3,0,0,1-2.13.92,16,16,0,0,1-2.07.14h-8.51A14.69,14.69,0,0,1,114,41a7.29,7.29,0,0,1-3-1.58A6.83,6.83,0,0,1,108.84,36a15.94,15.94,0,0,1-.5-4.18V15.93H115V30.85a12.32,12.32,0,0,0,.19,2.43,3.7,3.7,0,0,0,.59,1.4,2.48,2.48,0,0,0,1.42,1,9.86,9.86,0,0,0,2.36.25H124a1.6,1.6,0,0,0,1.07-.3.77.77,0,0,0,.22-.34,4.63,4.63,0,0,0,0-.65V15.93H132V36.41Z"/><path class="cls-1" d="M86.42,21.53h14.11v6.12H86.42V41.4H79.08V13.05a6.49,6.49,0,0,1,.25-1.75,4,4,0,0,1,1.14-1.78,4.25,4.25,0,0,1,2-1.12,9.51,9.51,0,0,1,1.84-.2h21.43v6.12h-19a.74.74,0,0,0-.13.12l0,0,0,0a.41.41,0,0,0-.13.23,3.64,3.64,0,0,0,0,.57Z"/><path class="cls-2" d="M80.9,58.14V51.3h2.26V49.9H80.9a1.52,1.52,0,0,1,.14-.77,1.24,1.24,0,0,1,.33-.4,1.51,1.51,0,0,1,.67-.21c.28,0,.65,0,1.12,0V47.14h-.79a6.73,6.73,0,0,0-.88.09,4.6,4.6,0,0,0-.85.22,2.75,2.75,0,0,0-.7.38,2,2,0,0,0-.43.49,3.15,3.15,0,0,0-.26.56,3,3,0,0,0-.13.56,2.88,2.88,0,0,0,0,.47H77.93V51.3h1.15v6.85H80.9Zm11.91-1.47V49.9H91v6.18a2.11,2.11,0,0,1,0,.25.46.46,0,0,1-.14.25.73.73,0,0,1-.53.17H88.78a3.6,3.6,0,0,1-.86-.09,1.05,1.05,0,0,1-.61-.44,1.63,1.63,0,0,1-.24-.57,4.22,4.22,0,0,1-.07-.88V49.9H85.18v5.2a5.21,5.21,0,0,0,.16,1.37A2.11,2.11,0,0,0,86,57.53,2.32,2.32,0,0,0,87,58a4.8,4.8,0,0,0,1.22.13h2.91a5.45,5.45,0,0,0,.68,0,1.2,1.2,0,0,0,.61-.26,1,1,0,0,0,.37-.6,3.93,3.93,0,0,0,.07-.57Zm2.52,1.47h1.82V47.24H95.33v10.9Zm6.81,0V51.3h2.26V49.9h-2.26a1.52,1.52,0,0,1,.14-.77,1.24,1.24,0,0,1,.33-.4,1.51,1.51,0,0,1,.67-.21c.28,0,.65,0,1.12,0V47.14h-.79a6.73,6.73,0,0,0-.88.09,4.6,4.6,0,0,0-.85.22,2.75,2.75,0,0,0-.7.38,2,2,0,0,0-.43.49,3.15,3.15,0,0,0-.26.56,3,3,0,0,0-.13.56,2.88,2.88,0,0,0,0,.47H99.17V51.3h1.15v6.85h1.82Zm3,0H107V49.89h-1.82v8.25ZM107,48.7V47.25h-1.82V48.7Zm2.52,9.44h1.82V47.24h-1.82v10.9Zm4.34,0h1.82V51.85a2,2,0,0,1,0-.32.35.35,0,0,1,0-.12l.12-.08a.65.65,0,0,1,.29,0h2.66v6.85h1.82V51.3h1.7a3,3,0,0,1,.56.06.91.91,0,0,1,.54.33,1.17,1.17,0,0,1,.28.58,3.37,3.37,0,0,1,.06.59v5.29h1.82V52.58a3.3,3.3,0,0,0-.19-1.15,2.28,2.28,0,0,0-.55-.87,2.19,2.19,0,0,0-1-.53,5.45,5.45,0,0,0-1-.12H115.3a2.8,2.8,0,0,0-.65.09,1,1,0,0,0-.6.41,1.09,1.09,0,0,0-.19.49,2.73,2.73,0,0,0,0,.44v6.8Zm21.75,0v-1.4h-4l-.51,0a1.69,1.69,0,0,1-.49-.13,1.08,1.08,0,0,1-.4-.3,1.33,1.33,0,0,1-.26-.52,3.56,3.56,0,0,1-.08-.53c0-.23,0-.43,0-.61h4.79a1.78,1.78,0,0,0,.47-.06.85.85,0,0,0,.41-.25,1.13,1.13,0,0,0,.33-.6,3.66,3.66,0,0,0,.06-.65,6.49,6.49,0,0,0-.05-.77,3,3,0,0,0-.18-.73,2.76,2.76,0,0,0-.36-.65,2.48,2.48,0,0,0-.58-.53,3,3,0,0,0-1.28-.44,11.36,11.36,0,0,0-1.44-.09l-.69,0a5.9,5.9,0,0,0-.81.09,4.1,4.1,0,0,0-.83.23,2.31,2.31,0,0,0-.75.45,2.49,2.49,0,0,0-.54.65,3.24,3.24,0,0,0-.3.79,4.54,4.54,0,0,0-.12.93c0,.34,0,.7,0,1.08a14.39,14.39,0,0,0,.09,1.62,3.05,3.05,0,0,0,.5,1.39,2.17,2.17,0,0,0,.56.57,2.58,2.58,0,0,0,1.31.45c.23,0,.45,0,.65,0Zm-5.81-4.91c0-.27,0-.52,0-.76a1.2,1.2,0,0,1,.32-.66,1.54,1.54,0,0,1,.87-.48,2.48,2.48,0,0,1,.45,0h.4a7.31,7.31,0,0,1,.8,0,1.55,1.55,0,0,1,.76.32,1.51,1.51,0,0,1,.37.44,1.3,1.3,0,0,1,.16.67.78.78,0,0,1-.07.33.34.34,0,0,1-.33.16h-3.78Zm8.37,4.91H140V51.73a1,1,0,0,1,0-.17.26.26,0,0,1,.09-.17.29.29,0,0,1,.16-.09h2a2.21,2.21,0,0,1,.8.12,1.27,1.27,0,0,1,.51.38,1.47,1.47,0,0,1,.28.68,5.06,5.06,0,0,1,.06.79v4.89h1.82V52.72a3.14,3.14,0,0,0-.24-1.35,2.44,2.44,0,0,0-.57-.79,2.18,2.18,0,0,0-1.07-.56,6.78,6.78,0,0,0-1.23-.11h-2.91a5.06,5.06,0,0,0-.63,0,1,1,0,0,0-.63.33.92.92,0,0,0-.23.45,2.47,2.47,0,0,0,0,.44v7Zm14.76,0v-1.4h-.45c-.17,0-.39,0-.68-.05a1.3,1.3,0,0,1-.74-.31.93.93,0,0,1-.3-.38,1.88,1.88,0,0,1-.14-.46,2.49,2.49,0,0,1,0-.47V51.3h2.3V49.9h-2.3V47.25h-1.82V49.9h-1.14v1.4h1.14v4.16a3.29,3.29,0,0,0,.21,1.28,2.12,2.12,0,0,0,.61.81,2.55,2.55,0,0,0,.88.46,4.72,4.72,0,0,0,1.33.15h1.14Zm13,0v-1.4h-4l-.51,0a1.69,1.69,0,0,1-.49-.13,1.08,1.08,0,0,1-.4-.3,1.33,1.33,0,0,1-.26-.52,3.56,3.56,0,0,1-.08-.53c0-.23,0-.43,0-.61h4.78a1.78,1.78,0,0,0,.47-.06.85.85,0,0,0,.41-.25,1.13,1.13,0,0,0,.33-.6,3.66,3.66,0,0,0,.06-.65,6.49,6.49,0,0,0-.05-.77,3,3,0,0,0-.18-.73,2.76,2.76,0,0,0-.36-.65,2.48,2.48,0,0,0-.58-.53,3,3,0,0,0-1.28-.44,11.36,11.36,0,0,0-1.44-.09l-.68,0a5.9,5.9,0,0,0-.81.09,4.1,4.1,0,0,0-.83.23,2.21,2.21,0,0,0-.75.45,2.49,2.49,0,0,0-.54.65,3.24,3.24,0,0,0-.3.79,4.54,4.54,0,0,0-.12.93c0,.34,0,.7,0,1.08a14.39,14.39,0,0,0,.09,1.62,3.05,3.05,0,0,0,.5,1.39,2.17,2.17,0,0,0,.56.57,2.58,2.58,0,0,0,1.31.45c.23,0,.45,0,.65,0Zm-5.81-4.91c0-.27,0-.52,0-.76a1.2,1.2,0,0,1,.32-.66,1.54,1.54,0,0,1,.87-.48,2.48,2.48,0,0,1,.45,0h.4a7.31,7.31,0,0,1,.8,0,1.59,1.59,0,0,1,.76.32,1.51,1.51,0,0,1,.37.44,1.3,1.3,0,0,1,.16.67.78.78,0,0,1-.07.33.34.34,0,0,1-.33.16h-3.78Zm15.8,4.91-3.16-4.23,2.94-4h-2l-2,2.83-1.95-2.83h-2.05l3,4-3.16,4.23h2.13l2.07-3,2.09,3Zm3.34,0h2.3l.69,0A3.78,3.78,0,0,0,183,58a2.93,2.93,0,0,0,.76-.36,2.58,2.58,0,0,0,.66-.66,2.8,2.8,0,0,0,.35-.69,4.06,4.06,0,0,0,.2-.78,5.55,5.55,0,0,0,.09-.83c0-.28,0-.56,0-.82s0-.47,0-.74a4.49,4.49,0,0,0-.1-.8,4.56,4.56,0,0,0-.26-.79,2.63,2.63,0,0,0-.49-.72,2.43,2.43,0,0,0-.64-.49,3.21,3.21,0,0,0-.68-.27,4,4,0,0,0-.62-.12,4.54,4.54,0,0,0-.49,0H178.9a3.14,3.14,0,0,0-.51,0,1.11,1.11,0,0,0-.51.22,1.51,1.51,0,0,0-.31.37,1.22,1.22,0,0,0-.16.65V60.8h1.82V58.14Zm0-1.4V51.68a.39.39,0,0,1,.12-.28l.12-.07a.24.24,0,0,1,.13,0h1.79a1.87,1.87,0,0,1,1,.26,1.55,1.55,0,0,1,.58.67,2.86,2.86,0,0,1,.15.55A7.11,7.11,0,0,1,183.2,54a6.21,6.21,0,0,1-.11,1.35,2.08,2.08,0,0,1-.23.62,2,2,0,0,1-.51.51,1.79,1.79,0,0,1-1,.26h-2.08Zm8.16,1.4h1.82V53.49a5.08,5.08,0,0,1,.08-.89,1.59,1.59,0,0,1,.34-.73,1.34,1.34,0,0,1,.76-.48,4,4,0,0,1,.79-.09h.76V49.9h-1.23l-.54,0a3.9,3.9,0,0,0-.65.09,3.5,3.5,0,0,0-.67.22,2.22,2.22,0,0,0-.61.4,2.1,2.1,0,0,0-.69,1.08,5.19,5.19,0,0,0-.16,1.32v5.11Zm13.93,0v-1.4h-4l-.51,0a1.69,1.69,0,0,1-.49-.13,1.08,1.08,0,0,1-.4-.3,1.33,1.33,0,0,1-.26-.52,3.56,3.56,0,0,1-.08-.53c0-.23,0-.43,0-.61h4.79a1.78,1.78,0,0,0,.47-.06.85.85,0,0,0,.41-.25,1.13,1.13,0,0,0,.33-.6,3.66,3.66,0,0,0,.06-.65,6.49,6.49,0,0,0-.05-.77,3,3,0,0,0-.18-.73,2.76,2.76,0,0,0-.36-.65,2.48,2.48,0,0,0-.58-.53,3,3,0,0,0-1.28-.44,11.36,11.36,0,0,0-1.44-.09l-.68,0a5.9,5.9,0,0,0-.81.09,4.1,4.1,0,0,0-.83.23,2.31,2.31,0,0,0-.75.45,2.49,2.49,0,0,0-.54.65,3.24,3.24,0,0,0-.3.79,4.54,4.54,0,0,0-.12.93c0,.34,0,.7,0,1.08a14.39,14.39,0,0,0,.09,1.62,3.05,3.05,0,0,0,.5,1.39,2.17,2.17,0,0,0,.56.57,2.58,2.58,0,0,0,1.31.45c.23,0,.45,0,.65,0Zm-5.81-4.91c0-.27,0-.52.05-.76a1.2,1.2,0,0,1,.32-.66,1.54,1.54,0,0,1,.87-.48,2.48,2.48,0,0,1,.45,0h.4a7.31,7.31,0,0,1,.8,0,1.55,1.55,0,0,1,.76.32,1.51,1.51,0,0,1,.37.44,1.3,1.3,0,0,1,.16.67.78.78,0,0,1-.07.33.34.34,0,0,1-.33.16h-3.78Zm8.27,4.91h5.28a5.14,5.14,0,0,0,.66,0,1.49,1.49,0,0,0,.66-.29,1.29,1.29,0,0,0,.39-.42,2.5,2.5,0,0,0,.21-.48,2.15,2.15,0,0,0,.09-.47c0-.15,0-.28,0-.38a3.47,3.47,0,0,0-.09-.75,1.59,1.59,0,0,0-.43-.76,2.22,2.22,0,0,0-.81-.52c-.33-.13-.75-.27-1.25-.41l-1.77-.5-.22-.06-.29-.1-.29-.12a1,1,0,0,1-.23-.14.69.69,0,0,1-.23-.31,1.15,1.15,0,0,1,0-.33,1.66,1.66,0,0,1,0-.32.46.46,0,0,1,.2-.27.61.61,0,0,1,.32-.14l.32,0h4.37V49.9H206l-.54,0A2.35,2.35,0,0,0,205,50a1.94,1.94,0,0,0-.49.22,1.45,1.45,0,0,0-.42.4,1.78,1.78,0,0,0-.32.72,3.51,3.51,0,0,0-.07.69,3.34,3.34,0,0,0,.07.68,1.78,1.78,0,0,0,.32.72,2,2,0,0,0,.7.58,4.88,4.88,0,0,0,1.11.41l1.59.44.7.2.43.14.24.1a.38.38,0,0,1,.12.09.55.55,0,0,1,.19.3,1.15,1.15,0,0,1,0,.33c0,.06,0,.14,0,.24a.45.45,0,0,1-.14.27.49.49,0,0,1-.3.19,1.2,1.2,0,0,1-.31,0h-4.64v1.37Zm9.49,0h5.28a5.14,5.14,0,0,0,.66,0,1.49,1.49,0,0,0,.66-.29,1.29,1.29,0,0,0,.39-.42,2.5,2.5,0,0,0,.21-.48,2.15,2.15,0,0,0,.09-.47c0-.15,0-.28,0-.38a3.47,3.47,0,0,0-.09-.75,1.59,1.59,0,0,0-.43-.76,2.22,2.22,0,0,0-.81-.52c-.33-.13-.75-.27-1.25-.41l-1.77-.5-.22-.06-.29-.1-.29-.12a1,1,0,0,1-.23-.14.69.69,0,0,1-.23-.31,1.15,1.15,0,0,1,0-.33,1.66,1.66,0,0,1,0-.32.46.46,0,0,1,.2-.27.61.61,0,0,1,.32-.14l.32,0h4.37V49.9h-4.65l-.54,0a2.35,2.35,0,0,0-.53.09,1.94,1.94,0,0,0-.49.22,1.45,1.45,0,0,0-.42.4,1.78,1.78,0,0,0-.32.72,3.51,3.51,0,0,0-.07.69,3.34,3.34,0,0,0,.07.68,1.78,1.78,0,0,0,.32.72,2,2,0,0,0,.7.58,4.88,4.88,0,0,0,1.11.41l1.59.44.7.2.43.14.24.1a.38.38,0,0,1,.12.09.55.55,0,0,1,.19.3,1.15,1.15,0,0,1,0,.33c0,.06,0,.14,0,.24a.45.45,0,0,1-.14.27.49.49,0,0,1-.3.19,1.2,1.2,0,0,1-.31,0h-4.64v1.37Z"/></g></g></svg>